<svg id="vector" xmlns="http://www.w3.org/2000/svg" width="75" height="75" viewBox="0 0 75 75"><path fill="#FFFFFF" d="M17.873,28C18.865,28 19.546,28.531 19.943,29.399L19.943,29.399L27.319,45.622C27.461,45.874 27.518,46.126 27.518,46.35C27.518,47.273 26.809,48 25.873,48C25.05,48 24.483,47.524 24.17,46.797L24.17,46.797L22.553,43.133L12.908,43.133L11.234,46.909C10.95,47.608 10.355,48 9.617,48C8.709,48 8,47.301 8,46.406C8,46.154 8.085,45.902 8.227,45.622L8.227,45.622L15.603,29.399C16,28.531 16.709,28 17.702,28L17.702,28ZM45.343,28C46.287,28 47.036,28.754 47.036,29.704L47.036,29.704L47.036,39.229C47.036,45.067 43.761,48 38.681,48C33.629,48 30.41,45.067 30.41,39.397L30.41,39.397L30.41,29.704C30.41,28.754 31.159,28 32.131,28C33.074,28 33.824,28.754 33.824,29.704L33.824,29.704L33.824,39.257C33.824,42.888 35.683,44.816 38.737,44.816C41.762,44.816 43.622,43 43.622,39.397L43.622,39.397L43.622,29.704C43.622,28.754 44.371,28 45.343,28ZM66.11,28C66.883,28 67.714,28.62 67.714,29.577C67.714,30.085 67.513,30.479 67.17,30.901L67.17,30.901L61.558,37.775L67.456,45.014C67.742,45.38 68,45.803 68,46.31C68,47.268 67.256,48 66.254,48C65.509,48 65.08,47.718 64.65,47.155L64.65,47.155L59.268,40.254L53.972,47.042C53.485,47.662 53.027,48 52.254,48C51.452,48 50.651,47.38 50.651,46.394C50.651,45.915 50.851,45.521 51.166,45.099L51.166,45.099L57.121,37.831L51.509,30.986C51.223,30.62 50.966,30.169 50.966,29.69C50.966,28.732 51.71,28 52.712,28C53.456,28 53.886,28.282 54.315,28.845L54.315,28.845L59.383,35.408L64.393,28.958C64.851,28.338 65.337,28 66.11,28ZM17.731,32.168L14.241,40.084L21.22,40.084L17.731,32.168Z" stroke-width="1" fill-rule="nonzero" stroke="#00000000" id="path_0"/></svg>