<svg id="vector" xmlns="http://www.w3.org/2000/svg" width="75" height="75" viewBox="0 0 75 75"><path fill="#FFFFFF" d="M21.815,20.448L21.891,20.52L43.275,41.82L43.275,41.82L43.87,42.413L54.465,52.967C55.162,53.661 55.162,54.786 54.465,55.48C53.793,56.149 52.718,56.173 52.016,55.552L51.94,55.48L43.373,46.946L43.373,46.946L40.897,44.48L19.366,23.033C18.669,22.339 18.669,21.214 19.366,20.52C20.039,19.851 21.114,19.827 21.815,20.448ZM17.873,27.92C18.803,27.92 19.46,28.391 19.866,29.17L19.943,29.33L27.319,45.683C27.461,45.937 27.518,46.191 27.518,46.417C27.518,47.347 26.809,48.08 25.873,48.08C25.105,48.08 24.559,47.663 24.236,47.011L24.17,46.868L22.553,43.174L12.908,43.174L11.234,46.98C10.95,47.685 10.355,48.08 9.617,48.08C8.709,48.08 8,47.375 8,46.473C8,46.27 8.054,46.067 8.149,45.849L8.227,45.683L15.603,29.33C15.975,28.51 16.622,27.988 17.519,27.926L17.702,27.92L17.873,27.92ZM30.409,38.107L34.245,41.928C34.742,43.279 35.664,44.179 36.925,44.598L40.311,47.97C39.791,48.043 39.247,48.08 38.681,48.08C33.721,48.08 30.527,45.23 30.413,39.717L30.41,39.408L30.409,38.107ZM66.11,27.92C66.883,27.92 67.714,28.545 67.714,29.51C67.714,29.957 67.56,30.317 67.292,30.686L67.17,30.845L61.558,37.773L67.456,45.07C67.742,45.439 68,45.865 68,46.376C68,47.342 67.256,48.08 66.254,48.08C65.571,48.08 65.154,47.842 64.758,47.364L64.65,47.228L59.268,40.272L53.972,47.115C53.761,47.385 53.556,47.602 53.328,47.762L50.981,45.425C51.004,45.388 51.028,45.351 51.053,45.314L51.166,45.155L57.121,37.83L51.509,30.93C51.223,30.561 50.966,30.106 50.966,29.624C50.966,28.658 51.71,27.92 52.712,27.92C53.394,27.92 53.812,28.158 54.208,28.636L54.315,28.772L59.383,35.388L64.393,28.885C64.851,28.261 65.337,27.92 66.11,27.92ZM45.343,27.92C46.237,27.92 46.957,28.602 47.03,29.488L47.036,29.637L47.036,39.239C47.036,39.986 46.983,40.687 46.881,41.339L43.622,38.094L43.622,29.637C43.622,28.68 44.371,27.92 45.343,27.92ZM17.731,32.121L14.241,40.101L21.22,40.101L17.731,32.121Z" stroke-width="1" fill-rule="nonzero" stroke="#00000000" id="path_0"/></svg>