<svg id="vector" xmlns="http://www.w3.org/2000/svg" width="75" height="75" viewBox="0 0 75 75"><path fill="#FFFFFF" d="M34.944,27.432C34.677,27.481 34.411,27.538 34.146,27.609C32.766,27.978 31.51,28.627 30.434,29.504C29.497,30.267 28.697,31.201 28.077,32.282C27.559,33.184 27.191,34.145 26.973,35.135C26.63,36.691 26.662,38.318 27.087,39.903L27.087,39.903L27.128,40.047L27.128,40.047L27.171,40.189C21.101,39.059 16.542,36.034 14.247,31.575C13.807,30.718 13.464,29.827 13.219,28.913C12.294,25.459 12.762,21.674 14.609,18.176C16.04,15.463 19.146,13.485 22.522,13.138C25.771,12.805 28.799,14.018 30.827,16.466C32.782,18.836 33.209,21.357 33.553,23.382C33.833,25.035 34.053,26.32 34.944,27.432ZM44.035,44.216C46.105,50.056 45.785,55.525 43.093,59.739C40.621,63.608 36.343,65.925 31.356,66.096C28.297,66.203 25.032,64.487 23.038,61.724C22.306,60.709 21.784,59.609 21.479,58.472C20.985,56.63 21.062,54.688 21.738,52.844C22.801,49.963 24.76,48.337 26.334,47.03C27.616,45.965 28.612,45.135 29.125,43.811C29.86,44.678 30.745,45.422 31.755,46.008C32.216,46.276 32.693,46.503 33.181,46.692C35.141,47.453 37.281,47.575 39.347,47.021C39.49,46.983 39.632,46.941 39.772,46.896C41.419,46.378 42.876,45.456 44.035,44.216ZM41.687,35.991C42.043,37.318 41.863,38.702 41.18,39.889C40.814,40.528 40.325,41.068 39.746,41.486C39.728,41.499 39.71,41.513 39.691,41.526C39.208,41.866 38.664,42.122 38.077,42.279C36.757,42.633 35.378,42.449 34.194,41.761C33.009,41.073 32.161,39.965 31.806,38.639L31.806,38.639L31.742,38.373C31.477,37.129 31.676,35.849 32.313,34.741C32.995,33.553 34.097,32.704 35.416,32.351C36.572,32.041 37.774,32.144 38.85,32.636C38.853,32.638 38.856,32.639 38.859,32.64C39.008,32.709 39.155,32.785 39.299,32.869C40.484,33.557 41.332,34.665 41.687,35.991ZM64.275,27.672C65.903,30.279 66.063,33.973 64.681,37.082C63.35,40.076 60.797,42.1 57.675,42.635C54.657,43.145 52.271,42.251 50.354,41.533C48.789,40.947 47.572,40.493 46.17,40.709C46.738,39.123 46.896,37.425 46.625,35.747C46.57,35.406 46.498,35.065 46.407,34.727C45.903,32.847 44.891,31.193 43.492,29.912C42.961,29.425 42.375,28.991 41.738,28.621C40.883,28.124 39.975,27.763 39.041,27.539C43.037,22.831 47.914,20.388 52.9,20.631C57.477,20.854 61.624,23.421 64.275,27.672Z" stroke-width="1" fill-rule="nonzero" stroke="#00000000" id="path_0"/></svg>