<svg id="vector" xmlns="http://www.w3.org/2000/svg" width="75" height="75" viewBox="0 0 75 75"><path fill="#FFFFFF" d="M16.665,12.949L16.776,13.054L64.238,60.559C65.254,61.575 65.254,63.222 64.238,64.238C63.258,65.218 61.692,65.253 60.67,64.343L60.559,64.238L55.523,59.198C55.522,59.198 55.521,59.199 55.519,59.199L43.302,46.98L43.31,46.973L39.845,43.504C39.841,43.507 39.837,43.51 39.833,43.512L32.742,36.42L32.752,36.406L29.287,32.937C29.283,32.942 29.279,32.947 29.274,32.952L25.304,28.983L25.288,28.934L13.097,16.732C12.081,15.717 12.081,14.069 13.097,13.054C14.077,12.074 15.643,12.039 16.665,12.949ZM27.002,38.516C26.98,38.785 26.966,39.056 26.966,39.329C26.966,40.752 27.265,42.128 27.828,43.389C28.319,44.486 29.008,45.497 29.883,46.372C30.614,47.103 31.439,47.705 32.331,48.17C33.624,48.844 35.058,49.228 36.55,49.283L36.924,49.29L37.072,49.287L37.22,49.282C34.581,54.83 30.516,58.436 25.659,59.494C24.726,59.697 23.785,59.797 22.847,59.797C19.303,59.797 15.801,58.371 12.927,55.693C10.696,53.617 9.599,50.118 10.134,46.782C10.648,43.57 12.585,40.97 15.449,39.65C18.22,38.38 20.742,38.619 22.769,38.81C24.423,38.967 25.709,39.087 27.002,38.516ZM60.017,39.005C63.086,42.38 64.207,47.093 63.092,51.934C63.022,52.239 62.933,52.542 62.826,52.84L46.471,36.484C46.222,35.645 45.862,34.843 45.4,34.097C51.521,33.61 56.674,35.328 60.017,39.005ZM43.867,12.397C46.391,14.448 47.673,17.427 47.384,20.567C47.099,23.602 45.631,25.667 44.452,27.327C43.49,28.68 42.743,29.734 42.591,31.139C41.723,30.535 40.771,30.078 39.765,29.779L26.483,16.499C28.279,13.629 31.166,11.461 34.755,10.361C37.668,9.467 41.244,10.266 43.867,12.397Z" stroke-width="1" fill-rule="nonzero" stroke="#00000000" id="path_0"/></svg>